# AST/ASF file generated using VICON BodyLanguage
# -----------------------------------------------
:version 1.10
:name VICON
:units
  mass 1.0
  length 0.45
  angle deg
:documentation
   .ast/.asf automatically generated from VICON data using
   VICON BodyBuilder and BodyLanguage model FoxedUp or BRILLIANT.MOD
:root
   order TX TY TZ RX RY RZ
   axis XYZ
   position 0 0 0  
   orientation 0 0 0 
:bonedata
  begin
     id 1 
     name lhipjoint
     direction 0.714689 -0.624256 0.315473 
     length 2.45343 
     axis 0 0 0  XYZ
  end
  begin
     id 2 
     name lfemur
     direction 0.34202 -0.939693 0  
     length 6.59069  
     axis 0 0 20  XYZ
    dof rx ry rz
    limits (-160.0 20.0)
           (-70.0 70.0)
           (-60.0 70.0)
  end
  begin
     id 3 
     name ltibia
     direction 0.34202 -0.939693 0   
     length 6.73476   
     axis 0 0 20   XYZ
    dof rx
    limits (-10.0 170.0)
  end
  begin
     id 4 
     name lfoot
     direction 0.0718085 -0.197292 0.977711   
     length 1.52607   
     axis -90 7.62852e-016 20   XYZ
    dof rx rz
    limits (-45.0 90.0)
           (-70.0 20.0)
  end
  begin
     id 5 
     name ltoes
     direction 1.53553e-011 -4.22024e-011 1   
     length 0.777832   
     axis -90 7.62852e-016 20   XYZ
    dof rx
    limits (-90.0 20.0)
  end
  begin
     id 6 
     name rhipjoint
     direction -0.727419 -0.612432 0.309497   
     length 2.50079  
     axis 0 0 0  XYZ 
  end
  begin
     id 7 
     name rfemur
     direction -0.34202 -0.939693 0   
     length 6.51665   
     axis 0 0 -20   XYZ
    dof rx ry rz
    limits (-160.0 20.0)
           (-70.0 70.0)
           (-70.0 60.0)
  end
  begin
     id 8 
     name rtibia
     direction -0.34202 -0.939693 0   
     length 6.48919   
     axis 0 0 -20   XYZ
    dof rx
    limits (-10.0 170.0)
 end
 begin
     id 9 
     name rfoot
     direction -0.112205 -0.308282 0.944655   
     length 1.68717  
     axis -90 -7.62852e-016 -20   XYZ
    dof rx rz
    limits (-45.0 90.0)
           (-20.0 70.0)
  end
  begin
     id 10 
     name rtoes
     direction -1.53583e-011 -4.21993e-011 1   
     length 0.846859   
     axis -90 -7.62852e-016 -20   XYZ
    dof rx
    limits (-90.0 20.0)
  end
  begin
     id 11 
     name lowerback
     direction -0.00119603 0.996364 -0.0851956   
     length 1.67242   
     axis 0 0 0   XYZ
    dof rx ry rz
    limits (-20.0 45.0)
           (-30.0 30.0)
           (-30.0 30.0)
  end
  begin
     id 12 
     name upperback
     direction -0.00531001 0.998318 0.0577248   
     length 1.64819   
     axis 0 0 0   XYZ
    dof rx ry rz
    limits (-20.0 45.0)
           (-30.0 30.0)
           (-30.0 30.0)
  end
  begin
     id 13 
     name thorax
     direction -0.00653676 0.995132 0.0983291   
     length 1.67429   
     axis 0 0 0   XYZ
    dof rx ry rz
    limits (-20.0 45.0)
           (-30.0 30.0)
           (-30.0 30.0)
  end
  begin
     id 14 
     name lowerneck
     direction 0.0141424 0.999886 0.00525412   
     length 1.59623   
     axis 0 0 0   XYZ
    dof rx ry rz
    limits (-20.0 45.0)
           (-30.0 30.0)
           (-30.0 30.0)
  end
  begin
     id 15 
     name upperneck
     direction -0.0640064 0.987178 -0.146232   
     length 1.59576   
     axis 0 0 0   XYZ
    dof rx ry rz
    limits (-20.0 45.0)
           (-30.0 30.0)
           (-30.0 30.0)
  end
  begin
     id 16
     name head
     direction -0.0222942 0.998496 -0.0500859  
     length 1.60959  
     axis 0 0 0   XYZ
    dof rx ry rz
    limits (-20.0 45.0)
           (-30.0 30.0)
           (-30.0 30.0)
  end
  begin
     id 17 
     name lclavicle
     direction 0.908549 0.392612 0.142806  
     length 2.80649  
     axis 0 0 0   XYZ
    dof ry rz
    limits (-20.0 10.0)
           (0.0 20.0)
  end
  begin
     id 18 
     name lhumerus
     direction 1 -4.48968e-011 1.08832e-028   
     length 4.2884   
     axis -180 -30 -90   XYZ
    dof rx ry rz
    limits (-60.0 90.0)
           (-90.0 90.0)
           (-90.0 90.0)
  end
  begin
     id 19
     name lradius
     direction 1 -4.48952e-011 -3.02642e-028   
     length 3.06552   
     axis -180 -30 -90   XYZ
    dof rx
    limits (-10.0 170.0)
  end
  begin
     id 20
     name lwrist
     direction 1 -4.49014e-011 1.58672e-027   
     length 1.53276   
     axis -1.65735e-015 90 90   XYZ
    dof ry
    limits (-180.0 0.0)
 end
  begin
     id 21 
     name lhand
     direction 1 -4.48928e-011 3.17344e-027   
     length 0.753045   
     axis -2.02492e-015 90 90   XYZ
    dof rx rz
    limits (-90.0 90.0)
           (-45.0 45.0)
  end
  begin
     id 22 
     name lfingers
     direction 1 -4.48958e-011 6.34687e-027   
     length 0.607124   
     axis -4.04985e-015 90 90   XYZ
    dof rx
    limits (0.0 90.0)
  end
  begin
     id 23
     name lthumb
     direction 0.707107 -6.34905e-011 0.707107   
     length 0.871712   
     axis -90 45 2.85299e-015   XYZ
    dof rx rz
    limits (-45.0 45.0)
           (-45.0 45.0)
  end
  begin
     id 24 
     name rclavicle
     direction -0.885098 0.45949 0.0739604   
     length 2.9478  
     axis 0 0 0   XYZ 
    dof ry rz
    limits (-10.0 20.0)
           (-20.0 0.0)
  end
  begin
     id 25 
     name rhumerus
     direction -1 -4.4898e-011 -2.61739e-027  
     length 4.52172   
     axis -180 30 90   XYZ
    dof rx ry rz
    limits (-90.0 60.0)
           (-90.0 90.0)
           (-90.0 90.0)
  end
  begin
     id 26 
     name rradius
     direction -1 -4.48945e-011 9.02552e-028   
     length 2.8914   
     axis -180 30 90   XYZ
    dof rx
    limits (-10.0 170.0)
  end
  begin
     id 27 
     name rwrist
     direction -1 -4.49018e-011 1.58672e-027   
     length 1.4457   
     axis -1.65735e-015 -90 -90   XYZ
    dof ry
    limits (-180.0 0.0)
  end
  begin
     id 28
     name rhand
     direction -1 -4.48825e-011 3.17344e-027   
     length 0.680541   
     axis -2.02492e-015 -90 -90   XYZ
    dof rx rz
    limits (-90.0 90.0)
           (-45.0 45.0)
  end
  begin
     id 29
     name rfingers
     direction -1 -4.49067e-011 6.34687e-027   
     length 0.54867   
     axis -4.04985e-015 -90 -90   XYZ
    dof rx
    limits (0.0 90.0)
  end
  begin
     id 30
     name rthumb
     direction -0.707107 -6.34833e-011 0.707107   
     length 0.787783   
     axis -90 -45 -2.85299e-015   XYZ
    dof rx rz
    limits (-45.0 45.0)
           (-45.0 45.0)
  end
:hierarchy
  begin
    root lhipjoint rhipjoint lowerback
    lhipjoint lfemur
    lfemur ltibia
    ltibia lfoot
    lfoot ltoes
    rhipjoint rfemur
    rfemur rtibia
    rtibia rfoot
    rfoot rtoes
    lowerback upperback
    upperback thorax
    thorax lowerneck lclavicle rclavicle
    lowerneck upperneck
    upperneck head
    lclavicle lhumerus
    lhumerus lradius
    lradius lwrist
    lwrist lhand lthumb
    lhand lfingers
    rclavicle rhumerus
    rhumerus rradius
    rradius rwrist
    rwrist rhand rthumb
    rhand rfingers
  end

#!OML:ASF E:\emotionWalksFemale\Project 1\Capture day 1\Session 1\Female1.ASF
:FULLY-SPECIFIED
:DEGREES
333
root 8.89429 15.2577 9.79531 178.745 6.16394 -176.35
lowerback 6.08674 3.16831 3.74153
upperback -4.52968 4.72498 0.00740845
thorax -7.8851 2.15197 -2.68416
lowerneck -8.74235 -3.42452 -9.22705
upperneck 16.9758 -5.53233 9.15674
head 7.11556 -2.75391 3.99373
rclavicle 1.635e-014 -2.38542e-015
rhumerus -32.8454 10.9701 -92.2857
rradius 36.4943
rwrist 12.4255
rhand -0.452345 -52.4439
rfingers 7.12502
rthumb 25.157 -80.8062
lclavicle 1.635e-014 -2.38542e-015
lhumerus -48.2888 12.2015 72.6168
lradius 35.8448
lwrist -10.1338
lhand -6.43847 -32.7648
lfingers 7.12502
lthumb 19.4108 -3.71368
rfemur 24.857 13.4544 37.0624
rtibia -2.22639e-014
rfoot -8.8426 -17.1754
rtoes -5.52384
lfemur -32.8808 -33.8884 -7.93792
ltibia 25.1613
lfoot -36.0477 32.7349
ltoes 18.9012
334
root 8.88287 15.2531 9.65473 178.826 6.62286 -176.206
lowerback 6.09096 3.2595 3.97305
upperback -4.6476 4.88682 0.0584713
thorax -7.99137 2.2189 -2.78366
lowerneck -8.72228 -3.41027 -9.18501
upperneck 17.1436 -5.52178 9.02007
head 7.16013 -2.76312 3.94359
rclavicle 5.36719e-014 1.19271e-015
rhumerus -33.1804 11.0359 -92.5056
rradius 36.3134
rwrist 12.706
rhand 0.157036 -52.9476
rfingers 7.12502
rthumb 25.7408 -81.2267
lclavicle 5.36719e-014 1.19271e-015
lhumerus -48.6013 12.3756 72.29
lradius 35.5671
lwrist -10.8905
lhand -6.17922 -32.5247
lfingers 7.12502
lthumb 19.6601 -3.49881
rfemur 25.3376 13.3364 36.9935
rtibia -2.54444e-014
rfoot -8.49802 -16.534
rtoes -6.28527
lfemur -32.2452 -32.7944 -8.48519
ltibia 25.1367
lfoot -34.6027 32.4568
ltoes 17.1112
335
root 8.87167 15.2498 9.51425 178.867 7.03035 -176.175
lowerback 6.13949 3.35182 4.11229
upperback -4.76066 5.03464 0.0233117
thorax -8.11789 2.27923 -2.92406
lowerneck -8.60471 -3.36444 -9.02637
upperneck 17.1007 -5.48891 8.98358
head 7.11643 -2.7459 3.90882
rclavicle 3.85642e-014 1.07344e-014
rhumerus -33.4457 10.9403 -92.7355
rradius 36.0009
rwrist 13.1343
rhand 0.622881 -53.1902
rfingers 7.12502
rthumb 26.1868 -81.4038
lclavicle 3.85642e-014 1.07344e-014
lhumerus -48.9362 12.564 71.8103
lradius 35.2717
lwrist -11.7524
lhand -5.9159 -32.5375
lfingers 7.12502
lthumb 19.9132 -3.53772
rfemur 25.8068 13.1737 36.7839
rtibia 3.18055e-015
rfoot -8.21676 -15.7999
rtoes -7.91396
lfemur -31.3742 -31.0809 -9.48225
ltibia 25.0808
lfoot -32.0627 31.841
ltoes 13.3286
336
root 8.85691 15.252 9.37328 179.01 7.33246 -176.324
lowerback 5.94673 3.40708 4.10112
upperback -4.78954 5.09945 -0.0185393
thorax -8.02879 2.31481 -2.95595
lowerneck -8.78939 -3.34122 -8.97799
upperneck 17.1405 -5.43056 8.91472
head 7.15372 -2.71236 3.88173
rclavicle 5.98342e-014 5.1684e-015
rhumerus -33.6054 11.1361 -92.9276
rradius 35.5434
rwrist 13.3179
rhand 0.280883 -52.6157
rfingers 7.12502
rthumb 25.8594 -80.8775
lclavicle 5.98342e-014 5.1684e-015
lhumerus -49.1301 12.7331 71.5971
lradius 35.0327
lwrist -12.1719
lhand -5.9175 -32.4943
lfingers 7.12502
lthumb 19.9117 -3.49441
rfemur 26.1211 12.9621 36.3214
rtibia -1.90833e-014
rfoot -7.78722 -15.0924
rtoes -10.7485
lfemur -30.5985 -29.2468 -10.6764
ltibia 25.0311
lfoot -29.4774 30.8683
ltoes 9.54621
337
root 8.84421 15.2489 9.22858 179.021 7.69256 -176.487
lowerback 6.42879 3.45162 4.1906
upperback -5.10949 5.20678 -0.166948
thorax -8.63084 2.33669 -3.22911
lowerneck -9.09557 -3.3043 -8.8002
upperneck 17.7 -5.42433 8.74025
head 7.3792 -2.71784 3.79444
rclavicle 4.50247e-014 1.86858e-014
rhumerus -34.3405 11.2921 -93.4167
rradius 35.1262
rwrist 13.0936
rhand -0.269957 -52.0476
rfingers 7.12502
rthumb 25.3318 -80.3852
lclavicle 4.50247e-014 1.86858e-014
lhumerus -49.7526 12.347 71.2769
lradius 34.9397
lwrist -12.1707
lhand -5.75151 -32.4059
lfingers 7.12502
lthumb 20.0712 -3.42267
rfemur 26.6105 12.7693 35.8835
rtibia -9.54166e-015
rfoot -7.12622 -14.4333
rtoes -11.5279
lfemur -29.6844 -27.9798 -11.7359
ltibia 24.987
lfoot -28.1393 29.8965
ltoes 9.60314
338
root 8.83292 15.2464 9.0767 178.946 8.07885 -176.507
lowerback 5.9579 3.55994 4.12994
upperback -4.83803 5.3102 -0.0425133
thorax -8.06753 2.4146 -3.02437
lowerneck -9.45163 -3.33919 -8.73241
upperneck 17.7652 -5.38872 8.48881
head 7.45364 -2.69914 3.69955
rclavicle -1.31695e-014 -1.59028e-015
rhumerus -34.2518 11.6641 -93.3744
rradius 34.7824
rwrist 13.2028
rhand -0.296632 -51.936
rfingers 7.12502
rthumb 25.3062 -80.2772
lclavicle -1.31695e-014 -1.59028e-015
lhumerus -49.4929 12.8548 71.1601
lradius 34.4505
lwrist -12.87
lhand -5.49967 -32.68
lfingers 7.12502
lthumb 20.3133 -3.72234
rfemur 27.2057 12.5781 35.5981
rtibia 1.59028e-014
rfoot -6.50637 -13.7138
rtoes -9.95808
lfemur -28.7235 -27.3035 -12.4709
ltibia 24.9741
lfoot -27.337 29.3922
ltoes 10.6063
339
root 8.81946 15.2532 8.92199 178.919 8.34401 -176.509
lowerback 5.67719 3.58557 4.16717
upperback -4.73578 5.33333 0.031269
thorax -7.79512 2.4365 -2.94208
lowerneck -9.48131 -3.3002 -8.75331
upperneck 17.6776 -5.31345 8.49346
head 7.42417 -2.65963 3.71145
rclavicle 3.10601e-014 1.27222e-014
rhumerus -34.4264 12.0176 -93.437
rradius 34.5076
rwrist 13.656
rhand -0.434975 -51.7636
rfingers 7.12502
rthumb 25.1737 -80.1235
lclavicle 3.10601e-014 1.27222e-014
lhumerus -49.589 13.2126 70.9938
lradius 34.1424
lwrist -13.5136
lhand -5.47078 -32.768
lfingers 7.12502
lthumb 20.341 -3.81323
rfemur 27.7209 12.2948 35.2801
rtibia 6.36111e-015
rfoot -5.96469 -12.9309
rtoes -8.83826
lfemur -28.0193 -27.1332 -12.9642
ltibia 25.0546
lfoot -26.7315 29.0824
ltoes 12.8603
340
root 8.80708 15.2648 8.76407 178.972 8.62646 -176.57
lowerback 5.50695 3.61214 4.13505
upperback -4.80127 5.37002 0.0712428
thorax -7.77078 2.461 -2.8764
lowerneck -9.36755 -3.22624 -8.88255
upperneck 17.6226 -5.22379 8.62661
head 7.38368 -2.61879 3.78747
rclavicle -4.16454e-014 -9.14409e-015
rhumerus -34.8684 12.38 -93.5748
rradius 34.2741
rwrist 13.7239
rhand -0.512987 -51.8487
rfingers 7.12502
rthumb 25.0989 -80.2191
lclavicle -4.16454e-014 -9.14409e-015
lhumerus -50.1085 12.8802 71.1057
lradius 34.3411
lwrist -13.412
lhand -5.4012 -32.443
lfingers 7.12502
lthumb 20.4079 -3.49544
rfemur 28.1524 12.0565 34.882
rtibia 1.90833e-014
rfoot -5.0713 -12.103
rtoes -8.32925
lfemur -27.6142 -27.5893 -13.1943
ltibia 25.1685
lfoot -26.7494 29.1673
ltoes 17.2826
341
root 8.79496 15.2767 8.59689 178.927 8.95433 -176.709
lowerback 5.39258 3.66335 4.01265
upperback -4.91968 5.43546 0.0684276
thorax -7.83778 2.50038 -2.81612
lowerneck -9.31132 -3.16434 -8.87535
upperneck 17.813 -5.19144 8.67466
head 7.43261 -2.61065 3.80723
rclavicle -8.59744e-015 -7.35503e-015
rhumerus -35.5442 12.5442 -93.7525
rradius 34.116
rwrist 13.9021
rhand 0.182846 -52.4856
rfingers 7.12502
rthumb 25.7655 -80.7611
lclavicle -8.59744e-015 -7.35503e-015
lhumerus -50.6614 12.5753 71.0366
lradius 34.4088
lwrist -13.4368
lhand -5.24693 -32.1396
lfingers 7.12502
lthumb 20.5561 -3.20794
rfemur 28.6948 11.8504 34.4098
rtibia 1.59028e-014
rfoot -3.88506 -11.2648
rtoes -8.94521
lfemur -27.1 -28.29 -13.488
ltibia 25.2144
lfoot -27.0181 29.8181
ltoes 19.9059
342
root 8.779 15.2913 8.43312 178.738 9.11005 -177.048
lowerback 5.47648 3.61991 3.77037
upperback -5.01605 5.3604 -0.0106426
thorax -8.00916 2.46946 -2.76937
lowerneck -9.37468 -3.08095 -8.78371
upperneck 18.0411 -5.13374 8.71464
head 7.51058 -2.58215 3.81172
rclavicle -2.33572e-014 -1.17283e-014
rhumerus -36.2758 12.9921 -94.0761
rradius 33.904
rwrist 14.0995
rhand 0.475032 -52.7824
rfingers 7.12502
rthumb 26.0453 -81.017
lclavicle -2.33572e-014 -1.17283e-014
lhumerus -51.0687 12.7476 70.6199
lradius 34.0893
lwrist -13.8823
lhand -5.33732 -32.1808
lfingers 7.12502
lthumb 20.4693 -3.23977
rfemur 29.3112 11.4717 33.7116
rtibia 2.8625e-014
rfoot -2.65491 -10.4225
rtoes -10.8544
lfemur -26.3251 -28.5713 -14.2837
ltibia 25.2034
lfoot -26.4875 30.2782
ltoes 20.5626
343
root 8.76501 15.3109 8.2818 178.733 9.00133 -177.482
lowerback 5.58101 3.5147 3.39388
upperback -5.18931 5.19625 -0.113765
thorax -8.29086 2.40076 -2.66938
lowerneck -9.4313 -3.03461 -8.80358
upperneck 18.1882 -5.09914 8.77933
head 7.56706 -2.56629 3.84073
rclavicle -2.25621e-014 1.98785e-016
rhumerus -36.918 13.4319 -94.3042
rradius 33.6193
rwrist 14.1177
rhand 0.205126 -52.626
rfingers 7.12502
rthumb 25.7868 -80.8984
lclavicle -2.25621e-014 1.98785e-016
lhumerus -51.4646 12.6634 70.4147
lradius 33.8966
lwrist -13.9843
lhand -5.46917 -32.8565
lfingers 7.12502
lthumb 20.3426 -3.90195
rfemur 29.6463 10.8896 32.8614
rtibia 9.85972e-014
rfoot -1.37818 -9.4889
rtoes -11.726
lfemur -25.69 -27.9584 -15.3391
ltibia 25.1073
lfoot -24.7984 30.0448
ltoes 20.0796
344
root 8.75174 15.3278 8.11645 178.48 9.20976 -177.945
lowerback 5.59862 3.60007 3.10696
upperback -5.24693 5.27575 -0.274769
thorax -8.36727 2.4492 -2.69367
lowerneck -9.25249 -3.03434 -8.89022
upperneck 18.2957 -5.1668 8.94226
head 7.5818 -2.60649 3.90539
rclavicle -1.11816e-014 1.39149e-015
rhumerus -37.4898 13.2239 -94.3096
rradius 33.2393
rwrist 14.609
rhand 0.0947153 -52.2216
rfingers 7.12502
rthumb 25.6811 -80.5093
lclavicle -1.11816e-014 1.39149e-015
lhumerus -51.7418 12.2724 70.3651
lradius 33.7388
lwrist -14.0207
lhand -5.30873 -33.1784
lfingers 7.12502
lthumb 20.4968 -4.24038
rfemur 30.3018 10.5732 32.0347
rtibia 6.36111e-015
rfoot -0.159231 -8.6709
rtoes -10.5264
lfemur -24.5717 -27.1813 -16.5819
ltibia 24.9096
lfoot -23.5419 29.6989
ltoes 19.013
345
root 8.7392 15.3478 7.94997 178.284 9.43766 -178.45
lowerback 5.42031 3.70413 2.79478
upperback -5.27073 5.37013 -0.450922
thorax -8.29233 2.51183 -2.70385
lowerneck -9.15165 -3.03515 -8.81831
upperneck 18.5093 -5.22269 8.88671
head 7.63509 -2.64737 3.87125
rclavicle 4.10987e-014 1.98785e-016
rhumerus -38.0674 13.1406 -94.3676
rradius 32.825
rwrist 15.1313
rhand -0.429777 -51.698
rfingers 7.12502
rthumb 25.1787 -80.0572
lclavicle 4.10987e-014 1.98785e-016
lhumerus -51.8084 12.2567 70.136
lradius 33.319
lwrist -14.5868
lhand -4.95574 -32.5784
lfingers 7.12502
lthumb 20.8359 -3.67718
rfemur 30.8664 10.3054 31.1363
rtibia -8.90555e-014
rfoot 1.26229 -8.07051
rtoes -9.62667
lfemur -23.4614 -26.2158 -17.8416
ltibia 24.5988
lfoot -21.996 29.089
ltoes 15.8008
346
root 8.72323 15.3666 7.78845 178.1 9.54059 -178.921
lowerback 5.34697 3.73131 2.46069
upperback -5.30008 5.37133 -0.533137
thorax -8.30212 2.53073 -2.6018
lowerneck -9.17754 -3.00543 -8.78458
upperneck 18.7259 -5.18197 8.71575
head 7.70168 -2.64602 3.81366
rclavicle -1.0635e-014 -6.16232e-015
rhumerus -38.7093 13.3536 -94.4199
rradius 32.5401
rwrist 15.2808
rhand -0.584252 -51.934
rfingers 7.12502
rthumb 25.0306 -80.314
lclavicle -1.0635e-014 -6.16232e-015
lhumerus -51.973 12.3558 69.964
lradius 33.0639
lwrist -15.2424
lhand -4.50841 -31.8314
lfingers 7.12502
lthumb 21.2657 -2.97805
rfemur 31.3426 9.93284 30.2328
rtibia 6.36111e-015
rfoot 2.99999 -7.47312
rtoes -8.99231
lfemur -22.4306 -25.3402 -19.006
ltibia 24.2561
lfoot -20.5607 28.1329
ltoes 12.5255
